<svg width="114" height="114" viewBox="0 0 114 114" fill="none" xmlns="http://www.w3.org/2000/svg">
<g id="Frame 147">
<g id="Frame 145">
<path id="Rectangle 3" d="M114 11.0002V40.5002H102V23.5002C85.3241 24.4665 75.8307 28.1203 57 40.5002C36.0112 26.5137 23.6645 22.1481 0 23.5002V11.0002C24.5934 11.136 37.1014 14.8928 57 27.5002C76.7584 15.0569 90.5339 10.9654 114 11.0002Z" fill="#0189FF"/>
<path id="Rectangle 2" d="M0 28.0002H13V41.0002H0V28.0002Z" fill="#0189FF"/>
<path id="Rectangle 4" d="M0 47.0002C23.639 47.2413 36.5399 50.9573 57 64.0002C75.7965 50.983 88.4673 47.4589 114 47.0002V86.0002C89.1356 86.2177 76.7256 89.9332 57 102C37.227 90.6821 25.1712 86.3255 0 86.0002V47.0002Z" fill="#0189FF"/>
</g>
</g>
</svg>
